<svg width="39" height="45" viewBox="0 0 39 45" fill="none" xmlns="http://www.w3.org/2000/svg">
<path d="M18.0938 31.6406C23.3361 31.6406 27.5859 27.3908 27.5859 22.1484C27.5859 16.906 23.3361 12.6562 18.0938 12.6562C12.8514 12.6562 8.60156 16.906 8.60156 22.1484C8.60156 27.3908 12.8514 31.6406 18.0938 31.6406Z" fill="#006BA6"/>
<path d="M18.0938 31.9922C12.6656 31.9922 8.25 27.5766 8.25 22.1484C8.25 16.7203 12.6656 12.3047 18.0938 12.3047C23.5219 12.3047 27.9375 16.7203 27.9375 22.1484C27.9375 27.5766 23.5219 31.9922 18.0938 31.9922ZM18.0938 13.0078C13.0538 13.0078 8.95312 17.1084 8.95312 22.1484C8.95312 27.1884 13.0538 31.2891 18.0938 31.2891C23.1337 31.2891 27.2344 27.1884 27.2344 22.1484C27.2344 17.1084 23.1337 13.0078 18.0938 13.0078Z" fill="#263238"/>
<path d="M18.0945 23.9062C20.4244 23.9062 22.3132 22.0175 22.3132 19.6875C22.3132 17.3575 20.4244 15.4688 18.0945 15.4688C15.7645 15.4688 13.8757 17.3575 13.8757 19.6875C13.8757 22.0175 15.7645 23.9062 18.0945 23.9062Z" fill="white"/>
<path d="M18.0945 24.2578C15.5745 24.2578 13.5241 22.2075 13.5241 19.6875C13.5241 17.1675 15.5745 15.1172 18.0945 15.1172C20.6145 15.1172 22.6648 17.1675 22.6648 19.6875C22.6648 22.2075 20.6145 24.2578 18.0945 24.2578ZM18.0945 15.8203C15.9619 15.8203 14.2273 17.5549 14.2273 19.6875C14.2273 21.8201 15.9619 23.5547 18.0945 23.5547C20.227 23.5547 21.9616 21.8201 21.9616 19.6875C21.9616 17.5549 20.227 15.8203 18.0945 15.8203Z" fill="#263238"/>
<path d="M21.0195 17.2484L21.3338 16.9868C20.5603 16.0594 19.3966 15.4688 18.0945 15.4688C15.7643 15.4688 13.8757 17.3573 13.8757 19.6875H14.2737C16.7381 19.6875 19.1252 18.8248 21.0195 17.2484Z" fill="#E7E7E7"/>
<path d="M14.2737 20.0391H13.8757C13.6816 20.0391 13.5241 19.8816 13.5241 19.6875C13.5241 17.1675 15.5745 15.1172 18.0945 15.1172C19.4529 15.1172 20.7319 15.7162 21.6037 16.7611C21.6635 16.8328 21.6923 16.9249 21.6839 17.0184C21.6755 17.1113 21.6305 17.197 21.5588 17.2568L21.2445 17.5184C19.2912 19.144 16.8155 20.0391 14.2737 20.0391ZM14.2427 19.3359H14.2737C16.6509 19.3359 18.967 18.4985 20.7945 16.9777L20.8261 16.9509C20.1033 16.2281 19.1259 15.8196 18.0945 15.8196C16.0807 15.8203 14.4213 17.3679 14.2427 19.3359Z" fill="#263238"/>
<path d="M18.0945 23.9062C17.3224 23.9062 16.601 23.6953 15.978 23.3332L15.9788 24.6129L18.0909 27.0478L20.1975 24.6058L20.1968 23.3416C19.5773 23.6988 18.8609 23.9062 18.0945 23.9062Z" fill="white"/>
<path d="M18.0909 27.3994C17.989 27.3994 17.892 27.3551 17.8252 27.2785L15.713 24.8435C15.6574 24.7795 15.6272 24.698 15.6272 24.6136L15.6265 23.3339C15.6265 23.2081 15.694 23.0913 15.8023 23.0288C15.9127 22.9662 16.0462 22.9669 16.1545 23.0295C17.3316 23.7157 18.8433 23.7178 20.021 23.0372C20.13 22.9746 20.2636 22.9746 20.3726 23.0372C20.4816 23.0998 20.5484 23.2158 20.5484 23.3417L20.5491 24.6059C20.5491 24.6902 20.5188 24.7718 20.4633 24.8358L18.3567 27.2777C18.2906 27.3544 18.1936 27.3994 18.0909 27.3994ZM16.3303 24.4814L18.0902 26.5099L19.8459 24.4751V23.9063C18.7329 24.3689 17.4412 24.3675 16.3303 23.8999V24.4814Z" fill="#263238"/>
<path d="M22.0256 25.2126L20.1996 24.6058L18.0966 27.0471L15.9816 24.6122L14.1668 25.2133C13.3652 25.4791 12.7177 26.0198 12.293 26.704C13.6437 28.4231 15.7376 29.5312 18.0937 29.5312C20.4506 29.5312 22.5452 28.4224 23.8966 26.7026C23.4734 26.0191 22.8258 25.4791 22.0256 25.2126Z" fill="white"/>
<path d="M18.0937 29.8828C15.7109 29.8828 13.4953 28.8035 12.0152 26.922C11.9238 26.8059 11.9147 26.6449 11.9927 26.5191C12.4737 25.7435 13.2063 25.1613 14.0543 24.8801L15.8698 24.2789C16.0034 24.2346 16.1524 24.2754 16.2459 24.3816L18.0952 26.5099L19.9331 24.3766C20.0259 24.2691 20.175 24.2276 20.3107 24.2726L22.1367 24.8794C22.984 25.1613 23.7159 25.7428 24.1962 26.5177C24.2742 26.6435 24.2651 26.8038 24.1737 26.9205C22.6936 28.8028 20.478 29.8828 18.0937 29.8828ZM12.7289 26.6843C14.0712 28.2734 16.0125 29.1797 18.0937 29.1797C20.1757 29.1797 22.1177 28.2727 23.46 26.6829C23.0705 26.1506 22.5298 25.7512 21.9145 25.5466L20.3121 25.0144L18.363 27.277C18.2962 27.3544 18.1992 27.3987 18.0973 27.3994C17.9953 27.3994 17.8983 27.3558 17.8315 27.2784L15.8691 25.0207L14.2765 25.548C13.6605 25.752 13.1191 26.1513 12.7289 26.6843Z" fill="#263238"/>
<path d="M18.0938 29.8828C17.8997 29.8828 17.7422 29.7253 17.7422 29.5312V27.0478C17.7422 26.8537 17.8997 26.6962 18.0938 26.6962C18.2878 26.6962 18.4453 26.8537 18.4453 27.0478V29.5312C18.4453 29.7253 18.2878 29.8828 18.0938 29.8828Z" fill="#263238"/>
<path d="M25.5511 31.9929C25.4576 31.9929 25.3683 31.9556 25.3022 31.8902L23.4544 30.0424C23.382 29.97 23.3447 29.8695 23.3524 29.7668C23.3602 29.6648 23.4122 29.5713 23.4945 29.5102C24.2264 28.9716 24.8733 28.3296 25.4161 27.6012C25.4773 27.5189 25.5708 27.4683 25.6727 27.4605C25.7768 27.4556 25.8745 27.4901 25.947 27.5625L27.7884 29.404C27.9255 29.5411 27.9255 29.764 27.7884 29.9011L25.7993 31.8902C25.7339 31.9556 25.6446 31.9929 25.5511 31.9929ZM24.2355 29.828L25.5518 31.1442L27.0438 29.6522L25.7325 28.3409C25.2874 28.8893 24.7861 29.3871 24.2355 29.828Z" fill="#263238"/>
<path d="M32.7602 39.4073C32.4902 39.4073 32.2202 39.3047 32.0142 39.0987L25.5511 32.6355C25.1405 32.2242 25.1405 31.5548 25.5511 31.1435L27.0431 29.6522C27.4545 29.2409 28.1231 29.2409 28.5345 29.6522L34.9976 36.1153C35.1966 36.3143 35.3063 36.5794 35.3063 36.8613C35.3063 37.1433 35.1966 37.4084 34.9976 37.6073L33.5062 39.0987C33.3009 39.3047 33.0309 39.4073 32.7602 39.4073ZM27.7891 30.0466C27.6991 30.0466 27.6091 30.0804 27.5402 30.1493L26.0482 31.6406C25.9111 31.7777 25.9111 32.0013 26.0482 32.1384L32.5113 38.6016C32.6484 38.7394 32.8713 38.7387 33.0091 38.6016L34.5005 37.1095C34.5673 37.0434 34.6031 36.9548 34.6031 36.8606C34.6031 36.7671 34.5666 36.6785 34.5005 36.6117L28.0373 30.1486C27.9684 30.0811 27.8791 30.0466 27.7891 30.0466Z" fill="#263238"/>
<path d="M32.1563 41.8359H4.73438C4.15289 41.8359 3.67969 41.3627 3.67969 40.7812V7.03125C3.67969 6.44977 4.15289 5.97656 4.73438 5.97656H31.4531C32.0346 5.97656 32.5078 6.44977 32.5078 7.03125V31.7827C32.5078 31.9767 32.3503 32.1342 32.1563 32.1342C31.9622 32.1342 31.8047 31.9767 31.8047 31.7827V7.03125C31.8047 6.83719 31.6472 6.67969 31.4531 6.67969H4.73438C4.54031 6.67969 4.38281 6.83719 4.38281 7.03125V40.7812C4.38281 40.9753 4.54031 41.1328 4.73438 41.1328H32.1563C32.3503 41.1328 32.5078 41.2903 32.5078 41.4844C32.5078 41.6784 32.3503 41.8359 32.1563 41.8359Z" fill="#263238"/>
<path d="M28.6406 44.6484H1.92188C1.34039 44.6484 0.867188 44.1752 0.867188 43.5938V10.5469C0.867188 9.96539 1.34039 9.49219 1.92188 9.49219H2.625C2.81906 9.49219 2.97656 9.64969 2.97656 9.84375C2.97656 10.0378 2.81906 10.1953 2.625 10.1953H1.92188C1.72781 10.1953 1.57031 10.3528 1.57031 10.5469V43.5938C1.57031 43.7878 1.72781 43.9453 1.92188 43.9453H28.6406C28.8347 43.9453 28.9922 43.7878 28.9922 43.5938V42.8906C28.9922 42.6966 29.1497 42.5391 29.3438 42.5391C29.5378 42.5391 29.6953 42.6966 29.6953 42.8906V43.5938C29.6953 44.1752 29.2221 44.6484 28.6406 44.6484Z" fill="#263238"/>
<path d="M19.8523 34.4539H9.30539C9.11133 34.4539 8.95383 34.2964 8.95383 34.1023C8.95383 33.9082 9.11133 33.7507 9.30539 33.7507H19.8523C20.0463 33.7507 20.2038 33.9082 20.2038 34.1023C20.2038 34.2964 20.0463 34.4539 19.8523 34.4539Z" fill="#263238"/>
<path d="M19.8523 36.5632H9.30539C9.11133 36.5632 8.95383 36.4057 8.95383 36.2117C8.95383 36.0176 9.11133 35.8601 9.30539 35.8601H19.8523C20.0463 35.8601 20.2038 36.0176 20.2038 36.2117C20.2038 36.4057 20.0463 36.5632 19.8523 36.5632Z" fill="#263238"/>
<path d="M14.5788 38.6726H9.30539C9.11133 38.6726 8.95383 38.5151 8.95383 38.321C8.95383 38.127 9.11133 37.9695 9.30539 37.9695H14.5788C14.7729 37.9695 14.9304 38.127 14.9304 38.321C14.9304 38.5151 14.7729 38.6726 14.5788 38.6726Z" fill="#263238"/>
<path d="M37.7812 6.67969H34.9688C34.7747 6.67969 34.6172 6.52219 34.6172 6.32812C34.6172 6.13406 34.7747 5.97656 34.9688 5.97656H37.7812C37.9753 5.97656 38.1328 6.13406 38.1328 6.32812C38.1328 6.52219 37.9753 6.67969 37.7812 6.67969Z" fill="#263238"/>
<path d="M33.5625 2.46094H30.75C30.5559 2.46094 30.3984 2.30344 30.3984 2.10938C30.3984 1.91531 30.5559 1.75781 30.75 1.75781H33.5625C33.7566 1.75781 33.9141 1.91531 33.9141 2.10938C33.9141 2.30344 33.7566 2.46094 33.5625 2.46094Z" fill="#263238"/>
<path d="M32.1562 3.86719C31.9622 3.86719 31.8047 3.70969 31.8047 3.51562V0.703125C31.8047 0.509062 31.9622 0.351562 32.1562 0.351562C32.3503 0.351562 32.5078 0.509062 32.5078 0.703125V3.51562C32.5078 3.70969 32.3503 3.86719 32.1562 3.86719Z" fill="#263238"/>
<path d="M36.375 8.08594C36.1809 8.08594 36.0234 7.92844 36.0234 7.73438V4.92188C36.0234 4.72781 36.1809 4.57031 36.375 4.57031C36.5691 4.57031 36.7266 4.72781 36.7266 4.92188V7.73438C36.7266 7.92844 36.5691 8.08594 36.375 8.08594Z" fill="#263238"/>
</svg>
